<svg width="1920" height="1080" viewBox="0 0 1920 1080" fill="none" xmlns="http://www.w3.org/2000/svg">
  <defs>
    <linearGradient id="sky" x1="960" y1="0" x2="960" y2="1080">
      <stop stop-color="#355A74"/>
      <stop offset=".48" stop-color="#8095A1"/>
      <stop offset=".7" stop-color="#D89A58"/>
      <stop offset="1" stop-color="#0A2234"/>
    </linearGradient>
    <linearGradient id="panel" x1="0" y1="0" x2="1" y2="1">
      <stop stop-color="#2A5570"/>
      <stop offset="1" stop-color="#07141F"/>
    </linearGradient>
    <radialGradient id="glow">
      <stop stop-color="#FFD88B"/>
      <stop offset=".35" stop-color="#F6A64A" stop-opacity=".72"/>
      <stop offset="1" stop-color="#F6A64A" stop-opacity="0"/>
    </radialGradient>
    <filter id="blur"><feGaussianBlur stdDeviation="28"/></filter>
  </defs>

  <rect width="1920" height="1080" fill="url(#sky)"/>
  <circle cx="1450" cy="245" r="250" fill="url(#glow)" filter="url(#blur)"/>
  <circle cx="1450" cy="245" r="68" fill="#FFD98B"/>

  <path d="M0 610C310 545 510 600 790 553C1035 511 1190 526 1450 540C1630 550 1770 512 1920 470V1080H0V610Z" fill="#17384D"/>
  <path d="M0 708C260 647 515 675 760 635C1015 594 1260 608 1480 633C1670 654 1780 628 1920 585V1080H0V708Z" fill="#0A2436"/>

  <g opacity=".9">
    <rect x="1422" y="400" width="52" height="282" fill="#17384B"/>
    <rect x="1495" y="332" width="72" height="350" fill="#1A4057"/>
    <rect x="1588" y="455" width="86" height="227" fill="#102D41"/>
    <rect x="1692" y="280" width="68" height="402" fill="#193D52"/>
    <rect x="1775" y="430" width="100" height="252" fill="#102C40"/>
  </g>

  <g transform="translate(1060 560)">
    <rect width="320" height="232" rx="12" fill="#E7EDF1"/>
    <rect x="20" y="22" width="280" height="58" rx="5" fill="#1E394C"/>
    <rect x="20" y="98" width="128" height="108" rx="5" fill="#D3DEE4"/>
    <rect x="166" y="98" width="134" height="108" rx="5" fill="#D3DEE4"/>
    <circle cx="276" cy="51" r="9" fill="#F28B22"/>
    <rect x="38" y="116" width="90" height="7" rx="3.5" fill="#9CAFB9"/>
    <rect x="184" y="116" width="98" height="7" rx="3.5" fill="#9CAFB9"/>
  </g>

  <g opacity=".98">
    <g transform="translate(320 682) skewX(-12)">
      <rect width="275" height="132" rx="5" fill="url(#panel)" stroke="#69899C"/>
      <path d="M68 0V132M137 0V132M206 0V132M0 44H275M0 88H275" stroke="#69899C" stroke-opacity=".55"/>
    </g>
    <g transform="translate(630 652) skewX(-12)">
      <rect width="300" height="142" rx="5" fill="url(#panel)" stroke="#69899C"/>
      <path d="M75 0V142M150 0V142M225 0V142M0 47H300M0 94H300" stroke="#69899C" stroke-opacity=".55"/>
    </g>
    <g transform="translate(55 745) skewX(-12)">
      <rect width="250" height="120" rx="5" fill="url(#panel)" stroke="#69899C"/>
      <path d="M62 0V120M125 0V120M188 0V120M0 40H250M0 80H250" stroke="#69899C" stroke-opacity=".55"/>
    </g>
  </g>

  <g stroke="#0B2536" stroke-width="18" opacity=".8">
    <path d="M1398 590V438H1537"/>
    <path d="M1537 438V560"/>
    <path d="M1568 610V470H1688"/>
    <path d="M1688 470V580"/>
  </g>

  <rect y="860" width="1920" height="220" fill="#06131F"/>
</svg>
