<svg width="1920" height="1080" viewBox="0 0 1920 1080" fill="none" xmlns="http://www.w3.org/2000/svg">
  <defs>
    <linearGradient id="sky" x1="960" y1="0" x2="960" y2="1080">
      <stop stop-color="#244964"/>
      <stop offset=".48" stop-color="#7D94A1"/>
      <stop offset=".71" stop-color="#D79655"/>
      <stop offset="1" stop-color="#10293A"/>
    </linearGradient>
    <linearGradient id="panel" x1="0" y1="0" x2="1" y2="1">
      <stop stop-color="#173A52"/>
      <stop offset="1" stop-color="#07131E"/>
    </linearGradient>
  </defs>
  <rect width="1920" height="1080" fill="url(#sky)"/>
  <circle cx="1370" cy="290" r="90" fill="#FFD889"/>
  <path d="M0 610C240 560 390 590 620 560C820 530 1010 500 1190 520C1450 548 1640 520 1920 470V1080H0V610Z" fill="#153247"/>
  <path d="M0 710C240 640 470 670 720 630C940 594 1180 590 1400 620C1600 648 1740 625 1920 590V1080H0V710Z" fill="#0C2436"/>

  <g opacity=".95">
    <rect x="1420" y="410" width="58" height="270" fill="#16374C"/>
    <rect x="1492" y="350" width="72" height="330" fill="#173B52"/>
    <rect x="1582" y="460" width="88" height="220" fill="#102D41"/>
    <rect x="1686" y="300" width="64" height="380" fill="#183C53"/>
    <rect x="1764" y="420" width="96" height="260" fill="#102D41"/>
  </g>

  <g transform="translate(1050 560)">
    <rect width="300" height="220" rx="10" fill="#E8EEF1"/>
    <rect x="18" y="20" width="264" height="54" rx="4" fill="#233B4D"/>
    <rect x="18" y="92" width="120" height="105" rx="4" fill="#D8E2E7"/>
    <rect x="153" y="92" width="129" height="105" rx="4" fill="#D8E2E7"/>
    <circle cx="258" cy="47" r="9" fill="#F28B22"/>
  </g>

  <g opacity=".96">
    <g transform="translate(360 675) skewX(-12)">
      <rect width="260" height="125" rx="4" fill="url(#panel)" stroke="#5E8298"/>
      <path d="M65 0V125M130 0V125M195 0V125M0 42H260M0 84H260" stroke="#5E8298" stroke-opacity=".55"/>
    </g>
    <g transform="translate(650 650) skewX(-12)">
      <rect width="280" height="135" rx="4" fill="url(#panel)" stroke="#5E8298"/>
      <path d="M70 0V135M140 0V135M210 0V135M0 45H280M0 90H280" stroke="#5E8298" stroke-opacity=".55"/>
    </g>
    <g transform="translate(95 735) skewX(-12)">
      <rect width="250" height="120" rx="4" fill="url(#panel)" stroke="#5E8298"/>
      <path d="M62 0V120M125 0V120M188 0V120M0 40H250M0 80H250" stroke="#5E8298" stroke-opacity=".55"/>
    </g>
  </g>

  <rect y="860" width="1920" height="220" fill="#071523"/>
</svg>
