<svg width="1200" height="800" viewBox="0 0 1200 800" fill="none" xmlns="http://www.w3.org/2000/svg">
  <defs>
    <linearGradient id="bg" x1="600" y1="0" x2="600" y2="800">
      <stop stop-color="#B9D0DD"/>
      <stop offset="1" stop-color="#17364B"/>
    </linearGradient>
  </defs>
  <rect width="1200" height="800" fill="url(#bg)"/>
  <circle cx="920" cy="160" r="95" fill="#F5B35F" opacity=".9"/>
  <path d="M0 520C220 460 390 500 600 465C790 432 980 455 1200 395V800H0V520Z" fill="#0C2436"/>
  <rect x="500" y="270" width="390" height="300" rx="18" fill="#E7EDF1"/>
  <rect x="530" y="305" width="330" height="72" rx="6" fill="#1E394C"/>
  <rect x="530" y="405" width="150" height="130" rx="6" fill="#D3DEE4"/>
  <rect x="710" y="405" width="150" height="130" rx="6" fill="#D3DEE4"/>
  <circle cx="830" cy="340" r="12" fill="#F28B22"/>
  <g transform="translate(90 520) skewX(-12)">
    <rect width="300" height="145" rx="5" fill="#163A52" stroke="#6C8FA4"/>
    <path d="M75 0V145M150 0V145M225 0V145M0 48H300M0 96H300" stroke="#6C8FA4" opacity=".6"/>
  </g>
</svg>
