<svg width="1400" height="720" viewBox="0 0 1400 720" fill="none" xmlns="http://www.w3.org/2000/svg">
  <g fill="#C8D3DA">
    <path d="M92 195L145 148L231 136L295 170L339 220L315 263L250 269L213 303L145 291L103 248Z"/>
    <path d="M287 315L337 342L361 405L339 468L303 525L266 505L247 448L258 378Z"/>
    <path d="M557 160L621 125L710 136L756 180L745 225L697 246L650 229L607 242L572 219Z"/>
    <path d="M628 256L701 271L741 340L721 425L673 493L619 461L600 378Z"/>
    <path d="M760 160L862 135L982 150L1080 188L1160 232L1131 275L1050 276L1008 321L917 311L853 279L792 260Z"/>
    <path d="M1045 330L1095 354L1117 402L1081 430L1035 405L1018 364Z"/>
    <path d="M1135 465L1182 442L1239 470L1251 520L1205 555L1150 535L1121 495Z"/>
    <path d="M1252 224L1295 206L1325 234L1308 270L1262 267Z"/>
  </g>

  <g>
    <circle cx="900" cy="250" r="10" fill="#F28B22"/>
    <circle cx="958" cy="287" r="10" fill="#F28B22"/>
    <circle cx="836" cy="393" r="10" fill="#F28B22"/>
    <circle cx="719" cy="381" r="10" fill="#F28B22"/>
    <circle cx="326" cy="426" r="10" fill="#F28B22"/>
    <circle cx="1110" cy="350" r="10" fill="#F28B22"/>
    <circle cx="1022" cy="266" r="10" fill="#F28B22"/>
  </g>

  <g fill="#F28B22" opacity=".13">
    <circle cx="900" cy="250" r="24"/>
    <circle cx="958" cy="287" r="24"/>
    <circle cx="836" cy="393" r="24"/>
    <circle cx="719" cy="381" r="24"/>
    <circle cx="326" cy="426" r="24"/>
    <circle cx="1110" cy="350" r="24"/>
    <circle cx="1022" cy="266" r="24"/>
  </g>
</svg>
